<svg xmlns="http://www.w3.org/2000/svg" style="enable-background:new 0 0 364.9 353.6" xml:space="preserve" viewBox="0 0 364.9 353.6"><style>.st0{fill:#2d2624}</style><path class="st0" d="m239.3 190.9 7.9-2c5.2-1.3 10.8-4.3 16.2-8.4 6.3-4.9 11.4-10.9 14.5-17 3.1-6.2 3.7-11.7 1.7-15.5-2.7-5.2-9.9-6.8-18.8-3.7l-1.7.6-.4 1.8c-3.1 13.7-8.1 26.3-15 37.4l-4.4 6.8zm25.2-41c4.6-1.3 8.3-.7 9.3 1.1.7 1.4.7 4.6-1.7 9.5-2.6 5.2-7.1 10.5-12.7 14.8-2 1.5-3.8 2.7-5.5 3.7 4.6-9 8.1-18.7 10.6-29.1z"/><path class="st0" d="M120.8 199.3c16.3 19.9 37.6 30.8 60 30.8 21.4 0 41.9-10.1 57.9-28.4 1.2.1 2.4 0 3.6-.1 8.4-.6 17.8-4.6 26.4-11.3 18.8-14.6 27.4-35.9 20.1-49.6-3.8-7.2-11.5-10.8-21-10 .2-1.9.4-3.9.5-5.8.2-3.4-.9-6.8-3.1-9.1-1.9-2-4.4-3.1-7-3.1H103.4c-2.6 0-5.1 1.1-7 3.1-2.2 2.4-3.4 5.7-3.2 9.2 1.8 28.4 11.5 54.8 27.6 74.3zm-19.6-79c.5-.5 1.2-1.1 2.2-1.1h154.7c1 0 1.8.6 2.2 1.1 1 1 1.5 2.6 1.4 4.2-.2 3.2-.5 6.4-.9 9.6l-.6 4.6 4.5-1c8.6-1.8 15.3.4 18.4 6.1 5.6 10.5-2.6 29.1-18.4 41.3-7.6 5.9-15.7 9.4-22.9 9.9-1.4.1-2.8.1-4.2-.1l-1.7-.2-1.1 1.3c-14.9 17.6-34.1 27.3-54.1 27.3-42.1 0-77.6-43.5-81-99 0-1.4.5-3 1.5-4z"/><path class="st0" d="M155.9 210.3c.4 0 .9-.2 1.2-.5.3-.3.5-.7.5-1.1 0-.4-.2-.9-.5-1.2-.6-.6-1.6-.6-2.3 0-.3.3-.5.7-.5 1.2 0 .4.2.8.5 1.1.3.3.7.5 1.1.5zM168.4 204c.4 0 .9-.2 1.2-.5.3-.3.5-.7.5-1.1 0-.4-.2-.9-.5-1.2-.6-.6-1.6-.6-2.3 0-.3.3-.5.7-.5 1.2 0 .4.2.8.5 1.1.3.3.7.5 1.1.5zM212.3 189.6c.4 0 .8-.2 1.1-.5.3-.3.5-.7.5-1.2 0-.4-.2-.8-.5-1.2-.3-.3-.8-.5-1.2-.4-.4 0-.8.2-1.1.5-.3.3-.5.7-.5 1.2s.2.9.5 1.1c.4.3.8.5 1.2.5zM196.3 197c.4 0 .8-.2 1.1-.5.3-.3.5-.8.5-1.2 0-.5-.2-.9-.5-1.1-.6-.6-1.7-.6-2.3 0-.3.3-.5.7-.5 1.1 0 .4.2.8.5 1.1.3.4.7.6 1.2.6zM207.1 207.2c.4 0 .8-.2 1.2-.5.3-.3.5-.7.5-1.2s-.2-.9-.5-1.1c-.3-.3-.7-.5-1.1-.5-.4 0-.9.2-1.1.4-.3.3-.5.7-.5 1.2s.2.9.5 1.1c.2.4.6.6 1 .6zM212.4 193.7c-.4 0-.9.2-1.1.4-.3.3-.5.7-.5 1.2s.2.9.5 1.1c.3.3.7.5 1.1.5.4 0 .8-.2 1.2-.5.3-.3.5-.7.5-1.2s-.2-.9-.5-1.1c-.4-.2-.8-.4-1.2-.4zM182.1 211.5c.4 0 .9-.2 1.2-.5.3-.3.5-.7.5-1.2 0-.4-.2-.8-.5-1.1-.6-.6-1.7-.6-2.3 0-.3.3-.5.7-.5 1.1 0 .5.2.9.5 1.2.3.3.7.5 1.1.5zM172.4 218.4c.4 0 .8-.2 1.1-.5.3-.3.5-.7.5-1.2 0-.4-.2-.8-.5-1.2-.6-.6-1.7-.6-2.3 0-.3.3-.4.7-.4 1.2 0 .4.1.8.5 1.2.3.3.7.5 1.1.5zM182.4 216.8c-.3.3-.4.7-.4 1.2 0 .4.1.8.5 1.2.3.3.7.5 1.1.5.4 0 .8-.2 1.1-.5.3-.3.5-.7.5-1.2 0-.4-.2-.8-.5-1.2-.6-.7-1.7-.7-2.3 0zM195.1 217.1c.4 0 .8-.2 1.1-.5.3-.3.5-.7.5-1.2 0-.4-.2-.8-.5-1.2-.6-.6-1.7-.6-2.3 0-.3.3-.4.7-.4 1.2 0 .4.1.8.5 1.2.3.4.7.5 1.1.5zM197.1 204.3c0 .4.1.8.5 1.2.3.3.7.5 1.1.5.4 0 .8-.2 1.1-.5.3-.3.5-.7.5-1.2 0-.4-.2-.8-.5-1.2-.7-.6-1.7-.6-2.3 0-.2.3-.4.7-.4 1.2zM229.2 173c.4 0 .8-.2 1.1-.5.3-.3.5-.7.5-1.2 0-.4-.2-.9-.5-1.2-.3-.3-.7-.5-1.2-.5-.4 0-.8.2-1.1.5-.3.3-.5.7-.5 1.2 0 .4.2.8.5 1.1.3.4.8.6 1.2.6zM228 187.1c.4 0 .8-.2 1.2-.5.3-.4.5-.7.5-1.2s-.2-.9-.5-1.1c-.3-.3-.7-.5-1.1-.5-.5 0-.9.2-1.1.4-.3.3-.5.8-.5 1.2 0 .4.2.8.5 1.1.1.4.5.6 1 .6zM222.4 201.5c.4 0 .8-.2 1.1-.4.3-.3.6-.7.6-1.2 0-.4-.2-.9-.5-1.2-.3-.3-.8-.5-1.2-.4-.4 0-.8.2-1.1.5-.3.3-.5.7-.5 1.2 0 .4.2.9.4 1.1.3.3.7.4 1.2.4zM238.5 147.5c.4 0 .8-.2 1.1-.4.3-.3.6-.7.6-1.2 0-.4-.2-.9-.5-1.2-.3-.3-.8-.5-1.2-.4-.4 0-.8.2-1.1.5-.3.3-.5.7-.5 1.2 0 .4.2.9.4 1.1.4.3.8.4 1.2.4zM247.7 155.7c.4 0 .8-.2 1.1-.5.3-.3.5-.7.5-1.2 0-.4-.2-.8-.5-1.1-.3-.3-.7-.5-1.2-.5s-.9.2-1.1.5c-.3.3-.5.7-.5 1.1 0 .5.2.9.4 1.1.4.4.8.6 1.3.6zM244.3 169.2c.4 0 .8-.2 1.1-.5.3-.3.5-.7.5-1.1 0-.5-.2-.9-.5-1.1-.3-.3-.7-.5-1.1-.5-.4 0-.9.2-1.2.4-.3.3-.5.8-.5 1.2 0 .5.2.9.5 1.1.4.3.8.5 1.2.5zM190.4 33c-1.4 1.7-2.8 3.3-4.5 4.8-1.8 1.6-3.7 3.3-5.7 5-3.9 3.5-8.3 7.5-11.5 13-3.3 5.5-4.8 12.5-3.9 18.6.8 6.2 3.4 11.7 6.7 16.2 3.4 4.5 7.6 8.3 12.4 10.8-5.7-9-9.4-18.8-8.9-27.5.3-4.3 1.6-8 4-11.3 2.4-3.3 5.9-6.5 9.7-9.9 7.5-6.4 18-16.7 16.7-31-.4-3.5-1.9-6.9-4.1-9.5-2.2-2.6-4.8-4.3-7.3-5.6-5.1-2.5-9.8-3.7-14.4-6.6 2.5 4.9 7.4 8.3 10.8 11.8 3.6 3.5 5.2 6.9 4.8 10.4-.2 3.5-2.1 7.4-4.8 10.8zM155.5 94.1c-4.3-5.8-7.4-12.2-8.2-18.6-.8-6.5 1.2-12.6 5.4-17.3 4.3-4.9 10.2-9.6 14.4-16 2.1-3.2 3.9-6.9 3.8-11.1-.2-4.3-2.8-7.7-5.9-9.5 2.1 3 3.3 6.3 2.7 9.4-.6 3-2.5 5.7-4.7 8.2-4.4 5.1-10 9.1-15.2 14.8-2.5 3-4.6 6.7-5.6 10.7-.9 4-.9 8.1.1 11.9 2.1 7.5 7.1 13.7 13.2 17.5z"/><path class="st0" d="M196.7 62.8c-1.9 3-3.2 6.5-3.5 10-.3 3.6.2 7.1 1.4 10.3 2.3 6.4 6.8 11.6 12.3 14.7-3.6-5.2-6.3-10.6-7.4-16.2-1.1-5.5-.2-10.9 2.7-15.3 2.9-4.4 7.8-8.2 12.1-13.1 2.1-2.4 4.1-5.2 5.2-8.5 1.1-3.2 1.1-6.8 0-9.8-.4 6.5-4.2 10.8-8.7 14.6-4.6 4-10 7.4-14.1 13.3zM26.1 285.1l13.6-4.1-2.9-9.8L0 282.3l2.9 9.8 13.5-4.1 11.5 39 9.7-2.9zM70.9 315.2l-4.1-19.9 17.9-3.8 4.2 19.9 9.8-2.2-10.5-49.7-9.8 2.1 4.2 19.9-17.9 3.8-4.2-19.9-9.8 2.2 10.4 49.7zM132 252.8l-30.1 4.2 7 50.4 30.1-4.3-1.4-10.1-20.2 2.9-1.4-10 20.2-2.9-1.4-10.1-20.2 2.8-1.4-10 20.2-2.8zM199.7 258.5c3.9-.1 7.6 1.4 10.3 3.9l7-7.3c-4.6-4.3-10.7-6.9-17.4-6.8-13.9.2-25 11.8-24.8 25.8.2 14 11.7 25.3 25.5 25.1 6.7-.1 12.8-2.9 17.2-7.3l-7.2-7.1c-2.6 2.5-6.3 4.1-10.2 4.2-8.4.1-15.2-6.6-15.4-15 0-8.5 6.7-15.4 15-15.5zM248.5 249.8l-22.8 48.9 10.6 1 6.4-13.7 15.4 1.5 3.8 14.6 10.6 1-13.4-52.4-10.6-.9zm-1.2 26.5 5.1-11 3 11.8-8.1-.8zM290.9 306.7l4.1-19.9 19.9 4.2 2.1-9.9-19.9-4.3 2-9.9 19.9 4.2 2.1-9.9-29.7-6.3-10.4 49.7zM361.8 284.1l3.1-9.6-28.8-9.6-15.7 48.3 28.9 9.6 3.1-9.7-19.3-6.4 3.1-9.6 19.3 6.4 3.2-9.7-19.3-6.4 3.1-9.6zM129.2 319.4c-60.3 8.7-99.6 25.8-101.2 26.5l3.3 7.7c.4-.2 40.1-17.4 99.3-25.9 54.6-7.9 137.4-9.7 222.2 26l3.2-7.7c-86.6-36.6-171.1-34.7-226.8-26.6z"/></svg>