<svg enable-background="new 0 0 644.2 359.1" height="359.1" width="644.2" xmlns="http://www.w3.org/2000/svg" xmlns:xlink="http://www.w3.org/1999/xlink"><linearGradient id="a" gradientUnits="userSpaceOnUse" x1="-143.795" x2="1066.728" y1="98.535" y2="102.318"><stop offset=".065" stop-color="#fcf06e"/><stop offset=".175" stop-color="#fcc659"/><stop offset=".333" stop-color="#fc903e"/><stop offset=".487" stop-color="#fc6328"/><stop offset=".634" stop-color="#fc4017"/><stop offset=".772" stop-color="#fc260a"/><stop offset=".898" stop-color="#fc1703"/><stop offset="1" stop-color="#fc1200"/></linearGradient><path clip-rule="evenodd" d="m42.4 358.1 11.2-15.4h20.6c1.9 0 3.6.1 5.1.2-.8-1.1-1.8-2.4-2.9-4.1-1.1-1.6-2.2-3.2-3.2-4.6l-10.7-15.8-28.1 39.7h-21.9l38.3-54.1c1.3-1.7 2.8-3.3 4.7-4.6 1.9-1.4 4.3-2.1 7.2-2.1 2.8 0 5.1.6 7 1.9s3.5 2.9 4.8 4.8l37.4 54.1zm146.8-26.1c0 18.1-12.4 27.1-37.3 27.1-7.2 0-13.4-.6-18.6-1.7s-9.5-2.8-12.8-5.1c-3.4-2.3-5.8-5.1-7.4-8.4-1.6-3.4-2.4-7.3-2.4-11.8v-33.7h18.4v33.6c0 2.2.3 4.1.9 5.5.6 1.5 1.7 2.7 3.4 3.6 1.6.9 3.9 1.6 6.9 2s6.9.6 11.6.6c3.6 0 6.6-.2 8.9-.6 2.4-.4 4.3-1.1 5.7-2.1s2.5-2.2 3.1-3.7.9-3.3.9-5.4v-33.7h18.6v33.8zm84.7-33.7-12 15.6h-21.4v44.2h-18.5v-44.2h-28l12-15.6zm39-1c14.5 0 25.5 2.5 32.8 7.4s10.9 12.8 10.9 23.4c0 10.7-3.6 18.6-10.9 23.5s-18.2 7.4-32.8 7.4c-14.7 0-25.6-2.5-32.8-7.4s-10.9-12.8-10.9-23.5 3.6-18.5 10.9-23.4 18.2-7.4 32.8-7.4zm0 46.2c4.6 0 8.6-.2 11.8-.6s5.8-1.2 7.8-2.3 3.4-2.7 4.3-4.7 1.3-4.6 1.3-7.8-.4-5.8-1.3-7.8-2.3-3.5-4.3-4.6-4.6-1.8-7.8-2.2-7.1-.6-11.8-.6c-4.6 0-8.6.2-11.8.6s-5.8 1.1-7.8 2.2-3.4 2.7-4.3 4.6c-.9 2-1.3 4.6-1.3 7.8s.4 5.8 1.3 7.8 2.3 3.6 4.3 4.7 4.6 1.9 7.8 2.3 7.2.6 11.8.6zm129.2-.8-11.9 15.4h-30c-5.2 0-10-.8-14.4-2.3s-8.2-3.7-11.4-6.4-5.7-5.9-7.5-9.7c-1.8-3.7-2.7-7.8-2.7-12.1 0-4.4.9-8.3 2.7-11.9s4.3-6.7 7.5-9.3 7-4.6 11.4-6 9.2-2.1 14.4-2.1h41.9l-11.9 15.6h-30c-2.5 0-4.8.4-7 1.1-2.1.7-4 1.7-5.5 3s-2.8 2.8-3.7 4.6-1.3 3.8-1.3 5.9.4 4.1 1.3 5.9 2.1 3.3 3.7 4.5 3.4 2.2 5.6 2.9c2.1.7 4.5 1 7 1h41.8zm28.7 15.4 11.2-15.4h20.6c1.9 0 3.6.1 5.1.2-.8-1.1-1.8-2.4-2.9-4.1-1.1-1.6-2.2-3.2-3.2-4.6l-10.7-15.8-28.1 39.7h-21.9l38.3-54.1c1.3-1.7 2.8-3.3 4.7-4.6 1.9-1.4 4.3-2.1 7.2-2.1 2.8 0 5.1.6 7 1.9s3.5 2.9 4.8 4.8l37.4 54.1zm160.9 0h-24.7l-13.3-15.8h-28.4v15.8h-18.5v-30.6h52c2.9 0 5.3-.6 7.2-1.8 2-1.2 2.9-2.8 2.9-4.9 0-2.3-.9-4.1-2.7-5.2-1.8-1.2-4.3-1.7-7.5-1.7h-52l12.1-15.6h38.4c3.4 0 6.9.3 10.5.9s6.9 1.7 9.9 3.4c3 1.6 5.4 3.8 7.4 6.5 1.9 2.7 2.9 6.3 2.9 10.5 0 2.3-.4 4.5-1.1 6.6s-1.7 4-3.1 5.6c-1.3 1.7-3 3.1-4.9 4.2-1.9 1.2-4.1 2-6.6 2.5 1 .8 2.1 1.8 3.4 2.9 1.3 1.2 2.9 2.8 5 4.9zm6.7-216.9c-124 250.4-350.5 27.3-489.6-13.4 164.8 22.4 335.9 203.7 489.6 13.4z" fill="#fff" fill-rule="evenodd"/><path d="m627.1 105.3c-134.4-26-272.4-181-428.3-59-18.3 14.3-88-23.4-198.8 92.5 200.5-138.8 317.9 32.7 503.4-27.2-111.4 1.2-229.9-50.2-278.6-55.9 134.9-83.5 241 32.6 349.7 58.9-121.5 111.8-227.2 2.4-423.5-4.7 216.1 39.4 333.1 183.5 493.2-2.1z" fill="url(#a)"/></svg>